<svg xmlns="http://www.w3.org/2000/svg" xml:space="preserve" width="831.3541" height="805.9079" viewBox="0 0 219.9624 213.2298"><path d="M151.1691 202.312c-4.959-1.2643-8.7246-5.2247-9.7798-10.2854-.4448-2.1334-.3253-3.7046.4542-5.9702 1.2144-3.5298 4.2668-6.6672 7.6466-7.8597.6427-.2268 1.2608-.5576 1.3737-.7352.1128-.1776.207-13.021.2092-28.5408l.004-28.2178.8996.8996c1.2203 1.2203 2.7398 1.2697 3.8833.1262l.7734-.7734.004 28.0916c.002 15.4504.0915 28.2131.1984 28.3616.107.1485 1.1244.7242 2.2611 1.2793 2.8324 1.383 4.901 3.4387 6.2015 6.1622.9728 2.0374.992 2.1377.9782 5.1208-.0116 2.5136-.118 3.3061-.6119 4.5574-1.2935 3.2776-4.1783 6.1461-7.4123 7.3704-1.8476.6995-5.1952.8949-7.0833.4135zm5.1111-5.8974c1.252-.594 3.2404-2.6335 3.8273-3.9253 1.6689-3.6738-1.0995-8.2925-5.4586-9.1069-3.736-.698-7.3325 2.444-7.3501 6.4211-.009 1.9448.4693 3.1634 1.8343 4.6776 1.9028 2.1105 5.0053 2.9499 7.1471 1.9335z" style="fill:#ed7868" transform="translate(4.1013 -39.2906)"/><path d="M51.4615 252.3923c-15.525-.1856-17.7059-.3647-24.184-1.9854-15.6776-3.9223-26.4401-15.1673-30.017-31.3628-1.416-6.4115-1.3615-3.4822-1.3615-73.2587 0-68.5135-.0227-67.1321 1.1958-72.9928C-.2218 59.8864 7.439 49.7702 18.548 44.4636c5.0418-2.4084 9.9931-3.7633 17.213-4.7101 3.2804-.4302 8.2284-.4629 70.0723-.4629 71.1764 0 69.6526-.0263 76.2352 1.3172 10.3059 2.1035 19.018 7.365 24.7297 14.935 3.1666 4.1967 6.2097 11.1518 7.5335 17.2176 1.4862 6.8101 1.401 2.8835 1.5042 69.3209.0651 41.9235.005 62.7803-.1915 66.0975-.5048 8.5349-1.8938 14.3642-4.8973 20.5535-2.092 4.311-4.3238 7.4729-7.5567 10.7059-7.7506 7.7508-17.1035 11.6333-30.6148 12.7085-4.066.3235-98.5735.5152-121.1141.2457zm35.3533-30.5298c9.9494-1.7386 18.1875-9.3705 20.9208-19.3812.726-2.6588.803-9.6398.1414-12.8186-1.1709-5.6262-7.1997-16.3799-20.4795-36.5299-3.515-5.3333-4.1475-5.95-5.787-5.6425-1.1462.215-1.6028.7892-5.7974 7.291-11.686 18.1138-17.3175 28.3432-18.9861 34.4874-.4994 1.8387-.5848 2.8216-.578 6.6553.0067 3.7978.0985 4.8273.5895 6.6145.6913 2.5166 2.2363 5.8392 3.755 8.0755 3.3385 4.9163 10.1785 9.6471 16.0237 11.0828 2.5968.6378 7.0791.7106 10.1976.1657zm-8.6304-5.294c-2.1306-.4665-4.2075-1.4176-6.8231-3.1244-6.694-4.368-10.1457-11.2274-9.6266-19.13.2518-3.833.8303-5.5923 3.7775-11.487 4.0442-8.0891 15.7072-27.257 16.5802-27.2492.3823.003 3.3141 4.445 8.9922 13.6231 6.6383 10.7302 9.543 16.0738 10.966 20.1735.6505 1.8745.7132 2.4055.726 6.1526.0123 3.588-.0635 4.348-.6062 6.076-1.966 6.2612-6.0612 11.0315-11.6466 13.5667-3.5046 1.5908-8.7486 2.1852-12.3394 1.3988zm3.4516-6.345c.924-.924.9075-2.7075-.0356-3.8282-.3767-.4477-.789-.814-.916-.814-.1272 0-.8848-.2446-1.6836-.5434-2.041-.7637-3.8679-2.4916-4.7962-4.5365-.66-1.454-.7576-1.9882-.7634-4.1806-.0036-1.3824.0964-3.3098.2222-4.283.2263-1.75.2198-1.7786-.5813-2.5798-1.294-1.294-3.5424-.925-4.3936.721-.5579 1.079-.9552 3.5755-.9552 6.0025 0 4.9266 2.069 9.119 5.9028 11.9612 3.595 2.6652 6.6269 3.4538 7.9999 2.0808zm78.3093 7.5583c7.4062-1.5286 14.6466-6.8802 18.5314-13.697 2.4247-4.255 3.5566-8.7484 3.5566-14.1194 0-9.8387-4.6325-18.3508-12.9739-23.8393l-.6521-.4291-.1323-41.5074-.1323-41.5073-.7326-2.0711c-.9459-2.6738-2.1051-4.46-4.0513-6.2422-3.2387-2.9659-7.8554-4.2448-12.1613-3.369-2.9715.6044-5.1791 1.7991-7.4627 4.0385-2.1978 2.1552-3.5365 4.6548-4.029 7.523-.3265 1.9003-.2123 78.789.1201 80.9697l.1844 1.2093-2.2057 1.608c-2.6147 1.9062-6.0373 5.3696-7.602 7.6929-1.666 2.4736-3.1134 5.6763-3.9109 8.6534-.637 2.3782-.7087 3.1008-.7087 7.1437 0 4.0153.0741 4.7735.6903 7.066 1.309 4.8696 3.5582 8.8462 7.0568 12.4761 3.2667 3.3894 6.5902 5.6293 10.8678 7.3244 4.0073 1.588 10.9655 2.0638 15.7474 1.0768zm-9.5215-5.0868c-5.4942-.8003-11.281-4.3264-14.8544-9.0513-1.4652-1.9373-3.3608-5.762-3.9572-7.9843-.2343-.8732-.4902-3.0241-.5686-4.78-.2314-5.1831.901-9.3465 3.6676-13.4827 1.7885-2.674 5.4365-6.066 8.1027-7.5342l2.1623-1.1906.008-42.2116c.009-46.3563-.0724-44 1.5932-46.421.9928-1.443 3.527-3.151 5.31-3.5786 3.6959-.8867 7.8488.9883 9.5472 4.3104 1.3248 2.591 1.2779.9118 1.2813 45.9105l.003 42.1472.8232.4507c8.6307 4.7254 12.948 11.5545 12.9972 20.559.0279 5.0999-1.0546 8.7525-3.7486 12.6496-1.6126 2.3326-5.1742 5.8498-7.3025 7.2112-4.3429 2.7781-9.5074 3.8051-15.0643 2.9957zm7.8286-10.7964c3.234-1.2243 6.1188-4.0928 7.4124-7.3704.4938-1.2513.6002-2.0438.6118-4.5574.0138-2.983-.005-3.0834-.9782-5.1208-1.3004-2.7235-3.3691-4.7791-6.2014-6.1622-1.1368-.5551-2.1543-1.1308-2.2612-1.2793-.1069-.1485-.1988-18.9032-.2043-41.6772-.009-38.8297-.0384-41.4425-.467-41.9717-1.3202-1.6297-3.3832-1.4864-4.5724.3176-.5.7585-.5117 1.6992-.5173 41.9186-.003 22.6285-.0981 41.288-.211 41.4657-.1129.1776-.731.5084-1.3737.7352-3.3798 1.1925-6.4322 4.3299-7.6466 7.8597-.7795 2.2656-.899 3.8368-.4542 5.9702 1.0552 5.0607 4.8209 9.021 9.7798 10.2855 1.888.4814 5.2357.286 7.0833-.4135zm-6.7784-5.6711c-1.4842-.6926-3.1508-2.3892-3.7706-3.8385-1.472-3.442.7742-7.9754 4.42-8.9212 5.0516-1.3103 10.0909 4.3837 7.984 9.0215-.5868 1.2918-2.5753 3.3313-3.8272 3.9253-1.3118.6225-3.2314.5478-4.8062-.1871zM67.1172 156.102c1.4224-.4077 2.211-1.2649 2.3898-2.5977.1213-.9048.037-1.1699-.5631-1.77l-.7059-.7058-7.1976.1877c-9.7081.2532-13.676-.2593-17.7279-2.2898-5.3074-2.6598-8.8564-6.7288-10.8165-12.4015-.8423-2.4378-.8683-2.6412-.8622-6.7469.006-4.0461.0425-4.3361.8245-6.558 1.2456-3.539 3.0107-6.2874 5.9063-9.196 1.9449-1.9538 2.9925-2.7721 4.6304-3.6172 3.4195-1.7642 5.5845-2.2341 11.1715-2.4247 6.1898-.2112 5.821.0874 6.314-5.1117.6043-6.3745 2.333-11.0427 5.7707-15.5843 4.2654-5.6351 9.707-9.0905 16.6957-10.6018 2.3238-.5025 9.291-.4263 11.774.1287 3.8828.868 8.053 3.2609 11.603 6.658 3.6424 3.4855 6.343 7.9561 7.8348 12.9695.5163 1.7353.9202 2.579 1.4888 3.1101.755.7053.8721.7281 3.619.7065 4.0636-.032 5.2171.4457 8.4012 3.479 2.5538 2.4329 3.236 2.7967 4.7217 2.518 1.1074-.2078 1.7332-.8794 1.926-2.0669.213-1.313-.3328-2.1813-2.8956-4.6072-3.272-3.0972-6.2092-4.481-10.5878-4.988-1.0904-.1262-1.5818-.3066-1.6894-.62-3.1374-9.142-9.2853-16.3742-17.1399-20.1628-3.9043-1.8832-7.0878-2.6467-11.7798-2.825-9.278-.3525-16.4776 1.9865-22.97 7.4626-6.4215 5.4163-10.5245 12.6323-11.8107 20.7719-.2414 1.528-.5215 2.8474-.6224 2.9322-.1008.0848-1.612.2935-3.3583.464-5.3887.5257-9.3328 1.875-13.365 4.5721-8.1495 5.4511-13.022 15.8522-11.9094 25.4224 1.4848 12.7722 10.2316 21.7404 23.1577 23.744 2.2375.347 16.383.1467 17.7724-.2514zm62.7226-.3331c.91-.4973 1.6581-1.6594 1.6581-2.5753 0-.7785-.6838-2.0141-1.247-2.2532-.26-.1104-7.911-.1737-17.0023-.1405-17.574.064-17.583.0647-18.2553 1.3208-.612 1.1433-.0707 3.008 1.115 3.8417.532.374 2.3528.4116 16.7365.3468 14.8483-.067 16.208-.1103 16.995-.5403zm53.6025-12.3478c1.2464-.2893 1.7467-.9111 1.7576-2.185.011-1.2743-.8572-2.2826-2.2405-2.602-1.8142-.419-8.2415-.3187-9.1334.1425-1.4816.7661-1.7338 2.2402-.6116 3.5738.3883.4615.9538.9394 1.2567 1.062.7372.2981 7.6948.305 8.9712.009zm-71.5032-8.728c1.3478-1.3477.9521-3.4726-.817-4.3874-1.1598-.5998-21.606-.587-22.873.0143-1.6454.7808-2.0062 3.0594-.6924 4.3732l.7734.7734h22.8356zm6.5545-11.2722c2.0808-1.7509.6068-4.6145-2.3815-4.6267-1.9474-.008-2.0767-.138-2.0767-2.0883 0-5.4933-2.9814-9.6431-8.188-11.3971-1.4767-.4975-2.2424-.5534-7.4525-.545-6.5509.0106-6.7197.0537-7.6943 1.9642-.3026.5931-.6232 1.6747-.7124 2.4034-.1287 1.0515-.2714 1.3428-.6913 1.4113-3.7222.6072-5.3715 2.0062-6.0667 5.1463l-.1611.7276h-2.3847c-3.6768 0-5.2781.9311-5.2781 3.069 0 .9228.1417 1.2365.814 1.8022l.814.685h5.1202c4.2486 0 5.1893-.069 5.526-.4058.4458-.4457.9511-2.0257.9534-2.9808.0028-1.1373.7345-2.1279 1.7879-2.4204.5454-.1515 1.2815-.2761 1.6357-.277.9989-.002 3.0137-2.249 3.4548-3.8525.198-.7195.4879-1.3958.6442-1.5027.1562-.1069 1.8009-.1962 3.6547-.1984 2.719-.003 3.6356.0966 4.7413.5168 3.6002 1.368 4.6438 4.4226 3.2383 9.4781-.376 1.3523-.3858 1.6698-.072 2.3244.6034 1.2585 1.2894 1.4268 5.8333 1.431 4.0518.004 4.165-.0113 4.9415-.6646zm65.8007.0192c.7009-.701.877-2.1351.377-3.0694-.5936-1.1092-1.56-1.3083-6.3493-1.3083h-4.5315l-.8043.8044c-.6723.6723-.7777.9437-.6418 1.6536.0923.4824.5612 1.2208 1.0854 1.7092l.9228.8599h4.6462c4.5801 0 4.6553-.009 5.2955-.6494zm.1866-19.4543c1.3548-1.0657 1.0918-3.4813-.4558-4.1865-1.0858-.4947-9.2096-.4281-10.1992.0836-1.2932.6687-1.6706 1.9723-.9483 3.2754.6634 1.197 1.2974 1.3326 6.2758 1.3427 4.2544.009 4.7188-.0363 5.3275-.5152z" style="fill:#32989b" transform="translate(4.1013 -39.2906)"/></svg>